<mxfile host="app.diagrams.net" modified="2023-09-03T15:37:45.289Z" agent="Mozilla/5.0 (Windows NT 10.0; Win64; x64) AppleWebKit/537.36 (KHTML, like Gecko) Chrome/116.0.0.0 Safari/537.36" etag="MHpnUuZY7v8Z-JOCwQNA" version="21.7.2" type="device">
  <diagram name="Page-1" id="0fP8P8YUJDqCjDfDduo_">
    <mxGraphModel dx="1434" dy="790" grid="1" gridSize="10" guides="1" tooltips="1" connect="1" arrows="1" fold="1" page="1" pageScale="1" pageWidth="850" pageHeight="1100" math="0" shadow="0">
      <root>
        <mxCell id="0" />
        <mxCell id="1" parent="0" />
        <mxCell id="7YEvDIjeLWanpLzrH5J_-3" value="" style="edgeStyle=orthogonalEdgeStyle;rounded=0;orthogonalLoop=1;jettySize=auto;html=1;" edge="1" parent="1" source="7YEvDIjeLWanpLzrH5J_-1" target="7YEvDIjeLWanpLzrH5J_-2">
          <mxGeometry relative="1" as="geometry" />
        </mxCell>
        <mxCell id="7YEvDIjeLWanpLzrH5J_-1" value="Start" style="ellipse;whiteSpace=wrap;html=1;" vertex="1" parent="1">
          <mxGeometry y="10" width="120" height="80" as="geometry" />
        </mxCell>
        <mxCell id="7YEvDIjeLWanpLzrH5J_-5" value="" style="edgeStyle=orthogonalEdgeStyle;rounded=0;orthogonalLoop=1;jettySize=auto;html=1;" edge="1" parent="1" source="7YEvDIjeLWanpLzrH5J_-2" target="7YEvDIjeLWanpLzrH5J_-4">
          <mxGeometry relative="1" as="geometry" />
        </mxCell>
        <mxCell id="7YEvDIjeLWanpLzrH5J_-2" value="INPUT&lt;br&gt;number" style="shape=parallelogram;perimeter=parallelogramPerimeter;whiteSpace=wrap;html=1;fixedSize=1;" vertex="1" parent="1">
          <mxGeometry x="180" y="20" width="120" height="60" as="geometry" />
        </mxCell>
        <mxCell id="7YEvDIjeLWanpLzrH5J_-7" value="" style="edgeStyle=orthogonalEdgeStyle;rounded=0;orthogonalLoop=1;jettySize=auto;html=1;" edge="1" parent="1" source="7YEvDIjeLWanpLzrH5J_-4" target="7YEvDIjeLWanpLzrH5J_-6">
          <mxGeometry relative="1" as="geometry" />
        </mxCell>
        <mxCell id="7YEvDIjeLWanpLzrH5J_-8" value="TRUE" style="edgeLabel;html=1;align=center;verticalAlign=middle;resizable=0;points=[];" vertex="1" connectable="0" parent="7YEvDIjeLWanpLzrH5J_-7">
          <mxGeometry x="-0.4667" y="1" relative="1" as="geometry">
            <mxPoint x="14" y="1" as="offset" />
          </mxGeometry>
        </mxCell>
        <mxCell id="7YEvDIjeLWanpLzrH5J_-4" value="is number &lt;br&gt;== angka?" style="rhombus;whiteSpace=wrap;html=1;" vertex="1" parent="1">
          <mxGeometry x="380" y="10" width="80" height="80" as="geometry" />
        </mxCell>
        <mxCell id="7YEvDIjeLWanpLzrH5J_-12" value="" style="edgeStyle=orthogonalEdgeStyle;rounded=0;orthogonalLoop=1;jettySize=auto;html=1;" edge="1" parent="1" source="7YEvDIjeLWanpLzrH5J_-6" target="7YEvDIjeLWanpLzrH5J_-11">
          <mxGeometry relative="1" as="geometry" />
        </mxCell>
        <mxCell id="7YEvDIjeLWanpLzrH5J_-6" value="let inputAsString = &quot;&quot; + number&lt;br&gt;let result = &quot;&quot;&lt;br&gt;let array = []&lt;br&gt;let i = 0" style="whiteSpace=wrap;html=1;" vertex="1" parent="1">
          <mxGeometry x="552.5" y="10" width="190" height="80" as="geometry" />
        </mxCell>
        <mxCell id="7YEvDIjeLWanpLzrH5J_-9" value="" style="endArrow=classic;html=1;rounded=0;exitX=0.5;exitY=1;exitDx=0;exitDy=0;entryX=0.5;entryY=1;entryDx=0;entryDy=0;" edge="1" parent="1" source="7YEvDIjeLWanpLzrH5J_-4" target="7YEvDIjeLWanpLzrH5J_-2">
          <mxGeometry width="50" height="50" relative="1" as="geometry">
            <mxPoint x="400" y="330" as="sourcePoint" />
            <mxPoint x="450" y="280" as="targetPoint" />
            <Array as="points">
              <mxPoint x="420" y="110" />
              <mxPoint x="240" y="110" />
            </Array>
          </mxGeometry>
        </mxCell>
        <mxCell id="7YEvDIjeLWanpLzrH5J_-10" value="FALSE" style="edgeLabel;html=1;align=center;verticalAlign=middle;resizable=0;points=[];" vertex="1" connectable="0" parent="7YEvDIjeLWanpLzrH5J_-9">
          <mxGeometry x="-0.5304" y="2" relative="1" as="geometry">
            <mxPoint x="4" y="-2" as="offset" />
          </mxGeometry>
        </mxCell>
        <mxCell id="7YEvDIjeLWanpLzrH5J_-14" value="" style="edgeStyle=orthogonalEdgeStyle;rounded=0;orthogonalLoop=1;jettySize=auto;html=1;exitX=0.5;exitY=1;exitDx=0;exitDy=0;" edge="1" parent="1" source="7YEvDIjeLWanpLzrH5J_-11" target="7YEvDIjeLWanpLzrH5J_-13">
          <mxGeometry relative="1" as="geometry">
            <mxPoint x="647.5" y="240" as="sourcePoint" />
          </mxGeometry>
        </mxCell>
        <mxCell id="7YEvDIjeLWanpLzrH5J_-20" value="TRUE" style="edgeLabel;html=1;align=center;verticalAlign=middle;resizable=0;points=[];" vertex="1" connectable="0" parent="7YEvDIjeLWanpLzrH5J_-14">
          <mxGeometry x="-0.48" y="3" relative="1" as="geometry">
            <mxPoint x="-3" y="7" as="offset" />
          </mxGeometry>
        </mxCell>
        <mxCell id="7YEvDIjeLWanpLzrH5J_-19" value="" style="edgeStyle=orthogonalEdgeStyle;rounded=0;orthogonalLoop=1;jettySize=auto;html=1;entryX=1;entryY=0.25;entryDx=0;entryDy=0;exitX=0;exitY=0.5;exitDx=0;exitDy=0;" edge="1" parent="1" source="7YEvDIjeLWanpLzrH5J_-11" target="7YEvDIjeLWanpLzrH5J_-18">
          <mxGeometry relative="1" as="geometry">
            <mxPoint x="595" y="185" as="sourcePoint" />
            <Array as="points" />
          </mxGeometry>
        </mxCell>
        <mxCell id="7YEvDIjeLWanpLzrH5J_-21" value="FALSE" style="edgeLabel;html=1;align=center;verticalAlign=middle;resizable=0;points=[];" vertex="1" connectable="0" parent="7YEvDIjeLWanpLzrH5J_-19">
          <mxGeometry x="-0.037" y="-3" relative="1" as="geometry">
            <mxPoint x="71" y="3" as="offset" />
          </mxGeometry>
        </mxCell>
        <mxCell id="7YEvDIjeLWanpLzrH5J_-11" value="is&lt;br&gt;i &amp;lt;&lt;br&gt;array.length - 1&lt;br&gt;?" style="rhombus;whiteSpace=wrap;html=1;fontStyle=0;verticalAlign=middle;" vertex="1" parent="1">
          <mxGeometry x="595" y="130" width="105" height="110" as="geometry" />
        </mxCell>
        <mxCell id="7YEvDIjeLWanpLzrH5J_-16" value="" style="edgeStyle=orthogonalEdgeStyle;rounded=0;orthogonalLoop=1;jettySize=auto;html=1;" edge="1" parent="1" source="7YEvDIjeLWanpLzrH5J_-13" target="7YEvDIjeLWanpLzrH5J_-15">
          <mxGeometry relative="1" as="geometry" />
        </mxCell>
        <mxCell id="7YEvDIjeLWanpLzrH5J_-13" value="array[array.length] = inputAsString[i]" style="whiteSpace=wrap;html=1;fontStyle=0;" vertex="1" parent="1">
          <mxGeometry x="587.5" y="340" width="120" height="60" as="geometry" />
        </mxCell>
        <mxCell id="7YEvDIjeLWanpLzrH5J_-15" value="i++" style="whiteSpace=wrap;html=1;fontStyle=0;" vertex="1" parent="1">
          <mxGeometry x="720" y="230" width="120" height="60" as="geometry" />
        </mxCell>
        <mxCell id="7YEvDIjeLWanpLzrH5J_-17" value="" style="endArrow=classic;html=1;rounded=0;exitX=0.5;exitY=0;exitDx=0;exitDy=0;entryX=1;entryY=0.5;entryDx=0;entryDy=0;" edge="1" parent="1" source="7YEvDIjeLWanpLzrH5J_-15" target="7YEvDIjeLWanpLzrH5J_-11">
          <mxGeometry width="50" height="50" relative="1" as="geometry">
            <mxPoint x="400" y="350" as="sourcePoint" />
            <mxPoint x="700" y="185" as="targetPoint" />
            <Array as="points">
              <mxPoint x="780" y="185" />
            </Array>
          </mxGeometry>
        </mxCell>
        <mxCell id="7YEvDIjeLWanpLzrH5J_-23" value="" style="edgeStyle=orthogonalEdgeStyle;rounded=0;orthogonalLoop=1;jettySize=auto;html=1;" edge="1" parent="1" source="7YEvDIjeLWanpLzrH5J_-18" target="7YEvDIjeLWanpLzrH5J_-22">
          <mxGeometry relative="1" as="geometry" />
        </mxCell>
        <mxCell id="7YEvDIjeLWanpLzrH5J_-18" value="let done = false&lt;br&gt;let j = 0" style="whiteSpace=wrap;html=1;fontStyle=0;" vertex="1" parent="1">
          <mxGeometry x="230" y="170" width="120" height="60" as="geometry" />
        </mxCell>
        <mxCell id="7YEvDIjeLWanpLzrH5J_-27" value="" style="edgeStyle=orthogonalEdgeStyle;rounded=0;orthogonalLoop=1;jettySize=auto;html=1;" edge="1" parent="1" source="7YEvDIjeLWanpLzrH5J_-22" target="7YEvDIjeLWanpLzrH5J_-26">
          <mxGeometry relative="1" as="geometry" />
        </mxCell>
        <mxCell id="7YEvDIjeLWanpLzrH5J_-28" value="TRUE" style="edgeLabel;html=1;align=center;verticalAlign=middle;resizable=0;points=[];" vertex="1" connectable="0" parent="7YEvDIjeLWanpLzrH5J_-27">
          <mxGeometry x="-0.1" y="-2" relative="1" as="geometry">
            <mxPoint as="offset" />
          </mxGeometry>
        </mxCell>
        <mxCell id="7YEvDIjeLWanpLzrH5J_-42" value="" style="edgeStyle=orthogonalEdgeStyle;rounded=0;orthogonalLoop=1;jettySize=auto;html=1;" edge="1" parent="1" source="7YEvDIjeLWanpLzrH5J_-22" target="7YEvDIjeLWanpLzrH5J_-41">
          <mxGeometry relative="1" as="geometry" />
        </mxCell>
        <mxCell id="7YEvDIjeLWanpLzrH5J_-45" value="FALSE" style="edgeLabel;html=1;align=center;verticalAlign=middle;resizable=0;points=[];" vertex="1" connectable="0" parent="7YEvDIjeLWanpLzrH5J_-42">
          <mxGeometry x="0.05" y="3" relative="1" as="geometry">
            <mxPoint x="-2" y="3" as="offset" />
          </mxGeometry>
        </mxCell>
        <mxCell id="7YEvDIjeLWanpLzrH5J_-22" value="is&lt;br&gt;j &amp;lt; array.length - 1?" style="rhombus;whiteSpace=wrap;html=1;fontStyle=0;" vertex="1" parent="1">
          <mxGeometry x="240" y="330" width="100" height="100" as="geometry" />
        </mxCell>
        <mxCell id="7YEvDIjeLWanpLzrH5J_-30" value="TRUE" style="edgeStyle=orthogonalEdgeStyle;rounded=0;orthogonalLoop=1;jettySize=auto;html=1;exitX=1;exitY=1;exitDx=0;exitDy=0;entryX=0;entryY=0.25;entryDx=0;entryDy=0;" edge="1" parent="1" source="7YEvDIjeLWanpLzrH5J_-26" target="7YEvDIjeLWanpLzrH5J_-29">
          <mxGeometry x="-0.4286" relative="1" as="geometry">
            <Array as="points">
              <mxPoint x="180" y="410" />
              <mxPoint x="180" y="505" />
            </Array>
            <mxPoint as="offset" />
          </mxGeometry>
        </mxCell>
        <mxCell id="7YEvDIjeLWanpLzrH5J_-33" value="" style="edgeStyle=orthogonalEdgeStyle;rounded=0;orthogonalLoop=1;jettySize=auto;html=1;exitX=0;exitY=1;exitDx=0;exitDy=0;" edge="1" parent="1" source="7YEvDIjeLWanpLzrH5J_-26" target="7YEvDIjeLWanpLzrH5J_-32">
          <mxGeometry relative="1" as="geometry">
            <Array as="points">
              <mxPoint x="60" y="410" />
            </Array>
          </mxGeometry>
        </mxCell>
        <mxCell id="7YEvDIjeLWanpLzrH5J_-34" value="FALSE" style="edgeLabel;html=1;align=center;verticalAlign=middle;resizable=0;points=[];" vertex="1" connectable="0" parent="7YEvDIjeLWanpLzrH5J_-33">
          <mxGeometry x="-0.4286" y="-1" relative="1" as="geometry">
            <mxPoint x="1" y="19" as="offset" />
          </mxGeometry>
        </mxCell>
        <mxCell id="7YEvDIjeLWanpLzrH5J_-26" value="is&lt;br&gt;array[j] == &quot;0&quot;&lt;br&gt;||&lt;br&gt;array[j+1] == &quot;0&quot;&lt;br&gt;?" style="rhombus;whiteSpace=wrap;html=1;fontStyle=0;" vertex="1" parent="1">
          <mxGeometry x="60" y="320" width="120" height="120" as="geometry" />
        </mxCell>
        <mxCell id="7YEvDIjeLWanpLzrH5J_-71" value="" style="edgeStyle=orthogonalEdgeStyle;rounded=0;orthogonalLoop=1;jettySize=auto;html=1;" edge="1" parent="1" source="7YEvDIjeLWanpLzrH5J_-29" target="7YEvDIjeLWanpLzrH5J_-22">
          <mxGeometry relative="1" as="geometry" />
        </mxCell>
        <mxCell id="7YEvDIjeLWanpLzrH5J_-29" value="j++" style="whiteSpace=wrap;html=1;fontStyle=0;" vertex="1" parent="1">
          <mxGeometry x="230" y="490" width="120" height="60" as="geometry" />
        </mxCell>
        <mxCell id="7YEvDIjeLWanpLzrH5J_-38" value="" style="edgeStyle=orthogonalEdgeStyle;rounded=0;orthogonalLoop=1;jettySize=auto;html=1;entryX=0;entryY=0.5;entryDx=0;entryDy=0;exitX=0.5;exitY=1;exitDx=0;exitDy=0;" edge="1" parent="1" source="7YEvDIjeLWanpLzrH5J_-32" target="7YEvDIjeLWanpLzrH5J_-37">
          <mxGeometry relative="1" as="geometry" />
        </mxCell>
        <mxCell id="7YEvDIjeLWanpLzrH5J_-39" value="TRUE" style="edgeLabel;html=1;align=center;verticalAlign=middle;resizable=0;points=[];" vertex="1" connectable="0" parent="7YEvDIjeLWanpLzrH5J_-38">
          <mxGeometry x="-0.2" y="-2" relative="1" as="geometry">
            <mxPoint y="-22" as="offset" />
          </mxGeometry>
        </mxCell>
        <mxCell id="7YEvDIjeLWanpLzrH5J_-32" value="is&lt;br&gt;array[j]&lt;br&gt;&amp;gt;&lt;br&gt;array[j+1]&lt;br&gt;?" style="rhombus;whiteSpace=wrap;html=1;fontStyle=0;" vertex="1" parent="1">
          <mxGeometry x="10" y="490" width="100" height="90" as="geometry" />
        </mxCell>
        <mxCell id="7YEvDIjeLWanpLzrH5J_-35" value="" style="endArrow=classic;html=1;rounded=0;exitX=1;exitY=0.5;exitDx=0;exitDy=0;entryX=0;entryY=0.75;entryDx=0;entryDy=0;" edge="1" parent="1" source="7YEvDIjeLWanpLzrH5J_-32" target="7YEvDIjeLWanpLzrH5J_-29">
          <mxGeometry width="50" height="50" relative="1" as="geometry">
            <mxPoint x="400" y="350" as="sourcePoint" />
            <mxPoint x="450" y="300" as="targetPoint" />
            <Array as="points" />
          </mxGeometry>
        </mxCell>
        <mxCell id="7YEvDIjeLWanpLzrH5J_-36" value="FALSE" style="edgeLabel;html=1;align=center;verticalAlign=middle;resizable=0;points=[];" vertex="1" connectable="0" parent="7YEvDIjeLWanpLzrH5J_-35">
          <mxGeometry x="-0.8761" y="1" relative="1" as="geometry">
            <mxPoint x="29" as="offset" />
          </mxGeometry>
        </mxCell>
        <mxCell id="7YEvDIjeLWanpLzrH5J_-37" value="let temp = array[j]&lt;br&gt;array[j] = array[j + 1]&lt;br&gt;array[j + 1] = temp&lt;br&gt;done = true" style="whiteSpace=wrap;html=1;fontStyle=0;" vertex="1" parent="1">
          <mxGeometry x="120" y="590" width="120" height="60" as="geometry" />
        </mxCell>
        <mxCell id="7YEvDIjeLWanpLzrH5J_-40" value="" style="endArrow=classic;html=1;rounded=0;entryX=0.5;entryY=1;entryDx=0;entryDy=0;exitX=1;exitY=0.5;exitDx=0;exitDy=0;" edge="1" parent="1" source="7YEvDIjeLWanpLzrH5J_-37" target="7YEvDIjeLWanpLzrH5J_-29">
          <mxGeometry width="50" height="50" relative="1" as="geometry">
            <mxPoint x="250" y="620" as="sourcePoint" />
            <mxPoint x="450" y="400" as="targetPoint" />
            <Array as="points">
              <mxPoint x="290" y="620" />
              <mxPoint x="290" y="590" />
            </Array>
          </mxGeometry>
        </mxCell>
        <mxCell id="7YEvDIjeLWanpLzrH5J_-49" value="" style="edgeStyle=orthogonalEdgeStyle;rounded=0;orthogonalLoop=1;jettySize=auto;html=1;" edge="1" parent="1" source="7YEvDIjeLWanpLzrH5J_-41" target="7YEvDIjeLWanpLzrH5J_-48">
          <mxGeometry relative="1" as="geometry" />
        </mxCell>
        <mxCell id="7YEvDIjeLWanpLzrH5J_-52" value="FALSE" style="edgeLabel;html=1;align=center;verticalAlign=middle;resizable=0;points=[];" vertex="1" connectable="0" parent="7YEvDIjeLWanpLzrH5J_-49">
          <mxGeometry x="-0.2333" y="2" relative="1" as="geometry">
            <mxPoint as="offset" />
          </mxGeometry>
        </mxCell>
        <mxCell id="7YEvDIjeLWanpLzrH5J_-41" value="is&lt;br&gt;done == true ?" style="rhombus;whiteSpace=wrap;html=1;fontStyle=0;" vertex="1" parent="1">
          <mxGeometry x="420" y="330" width="100" height="100" as="geometry" />
        </mxCell>
        <mxCell id="7YEvDIjeLWanpLzrH5J_-43" value="" style="endArrow=classic;html=1;rounded=0;exitX=0.5;exitY=0;exitDx=0;exitDy=0;entryX=1;entryY=0.75;entryDx=0;entryDy=0;" edge="1" parent="1" source="7YEvDIjeLWanpLzrH5J_-41" target="7YEvDIjeLWanpLzrH5J_-18">
          <mxGeometry width="50" height="50" relative="1" as="geometry">
            <mxPoint x="400" y="450" as="sourcePoint" />
            <mxPoint x="450" y="400" as="targetPoint" />
            <Array as="points">
              <mxPoint x="470" y="270" />
              <mxPoint x="470" y="215" />
              <mxPoint x="410" y="215" />
            </Array>
          </mxGeometry>
        </mxCell>
        <mxCell id="7YEvDIjeLWanpLzrH5J_-44" value="TRUE" style="edgeLabel;html=1;align=center;verticalAlign=middle;resizable=0;points=[];" vertex="1" connectable="0" parent="7YEvDIjeLWanpLzrH5J_-43">
          <mxGeometry x="-0.7191" y="-2" relative="1" as="geometry">
            <mxPoint as="offset" />
          </mxGeometry>
        </mxCell>
        <mxCell id="7YEvDIjeLWanpLzrH5J_-51" value="" style="edgeStyle=orthogonalEdgeStyle;rounded=0;orthogonalLoop=1;jettySize=auto;html=1;" edge="1" parent="1" source="7YEvDIjeLWanpLzrH5J_-48" target="7YEvDIjeLWanpLzrH5J_-50">
          <mxGeometry relative="1" as="geometry" />
        </mxCell>
        <mxCell id="7YEvDIjeLWanpLzrH5J_-48" value="let l = 0" style="whiteSpace=wrap;html=1;fontStyle=0;" vertex="1" parent="1">
          <mxGeometry x="410" y="490" width="120" height="60" as="geometry" />
        </mxCell>
        <mxCell id="7YEvDIjeLWanpLzrH5J_-54" value="" style="edgeStyle=orthogonalEdgeStyle;rounded=0;orthogonalLoop=1;jettySize=auto;html=1;" edge="1" parent="1" source="7YEvDIjeLWanpLzrH5J_-50" target="7YEvDIjeLWanpLzrH5J_-53">
          <mxGeometry relative="1" as="geometry" />
        </mxCell>
        <mxCell id="7YEvDIjeLWanpLzrH5J_-55" value="TRUE" style="edgeLabel;html=1;align=center;verticalAlign=middle;resizable=0;points=[];" vertex="1" connectable="0" parent="7YEvDIjeLWanpLzrH5J_-54">
          <mxGeometry x="-0.16" y="2" relative="1" as="geometry">
            <mxPoint as="offset" />
          </mxGeometry>
        </mxCell>
        <mxCell id="7YEvDIjeLWanpLzrH5J_-65" value="" style="edgeStyle=orthogonalEdgeStyle;rounded=0;orthogonalLoop=1;jettySize=auto;html=1;" edge="1" parent="1" source="7YEvDIjeLWanpLzrH5J_-50" target="7YEvDIjeLWanpLzrH5J_-64">
          <mxGeometry relative="1" as="geometry" />
        </mxCell>
        <mxCell id="7YEvDIjeLWanpLzrH5J_-66" value="FALSE" style="edgeLabel;html=1;align=center;verticalAlign=middle;resizable=0;points=[];" vertex="1" connectable="0" parent="7YEvDIjeLWanpLzrH5J_-65">
          <mxGeometry x="-0.2923" relative="1" as="geometry">
            <mxPoint x="7" as="offset" />
          </mxGeometry>
        </mxCell>
        <mxCell id="7YEvDIjeLWanpLzrH5J_-50" value="is&lt;br&gt;l &amp;lt; array.length?" style="rhombus;whiteSpace=wrap;html=1;fontStyle=0;" vertex="1" parent="1">
          <mxGeometry x="540" y="580" width="80" height="80" as="geometry" />
        </mxCell>
        <mxCell id="7YEvDIjeLWanpLzrH5J_-57" value="" style="edgeStyle=orthogonalEdgeStyle;rounded=0;orthogonalLoop=1;jettySize=auto;html=1;entryX=0.75;entryY=1;entryDx=0;entryDy=0;" edge="1" parent="1" source="7YEvDIjeLWanpLzrH5J_-53" target="7YEvDIjeLWanpLzrH5J_-56">
          <mxGeometry relative="1" as="geometry" />
        </mxCell>
        <mxCell id="7YEvDIjeLWanpLzrH5J_-58" value="TRUE" style="edgeLabel;html=1;align=center;verticalAlign=middle;resizable=0;points=[];" vertex="1" connectable="0" parent="7YEvDIjeLWanpLzrH5J_-57">
          <mxGeometry x="-0.2727" y="1" relative="1" as="geometry">
            <mxPoint as="offset" />
          </mxGeometry>
        </mxCell>
        <mxCell id="7YEvDIjeLWanpLzrH5J_-60" value="" style="edgeStyle=orthogonalEdgeStyle;rounded=0;orthogonalLoop=1;jettySize=auto;html=1;entryX=1;entryY=0.5;entryDx=0;entryDy=0;exitX=0.5;exitY=1;exitDx=0;exitDy=0;" edge="1" parent="1" source="7YEvDIjeLWanpLzrH5J_-53" target="7YEvDIjeLWanpLzrH5J_-59">
          <mxGeometry relative="1" as="geometry" />
        </mxCell>
        <mxCell id="7YEvDIjeLWanpLzrH5J_-61" value="FALSE" style="edgeLabel;html=1;align=center;verticalAlign=middle;resizable=0;points=[];" vertex="1" connectable="0" parent="7YEvDIjeLWanpLzrH5J_-60">
          <mxGeometry x="-0.6471" y="1" relative="1" as="geometry">
            <mxPoint as="offset" />
          </mxGeometry>
        </mxCell>
        <mxCell id="7YEvDIjeLWanpLzrH5J_-53" value="is&lt;br&gt;array[l]&lt;br&gt;==&lt;br&gt;&quot;0&quot;&lt;br&gt;?" style="rhombus;whiteSpace=wrap;html=1;fontStyle=0;" vertex="1" parent="1">
          <mxGeometry x="540" y="710" width="80" height="80" as="geometry" />
        </mxCell>
        <mxCell id="7YEvDIjeLWanpLzrH5J_-56" value="l++" style="whiteSpace=wrap;html=1;fontStyle=0;" vertex="1" parent="1">
          <mxGeometry x="370" y="660" width="120" height="60" as="geometry" />
        </mxCell>
        <mxCell id="7YEvDIjeLWanpLzrH5J_-62" value="" style="edgeStyle=orthogonalEdgeStyle;rounded=0;orthogonalLoop=1;jettySize=auto;html=1;entryX=0.25;entryY=1;entryDx=0;entryDy=0;" edge="1" parent="1" source="7YEvDIjeLWanpLzrH5J_-59" target="7YEvDIjeLWanpLzrH5J_-56">
          <mxGeometry relative="1" as="geometry" />
        </mxCell>
        <mxCell id="7YEvDIjeLWanpLzrH5J_-59" value="result += array[l]" style="whiteSpace=wrap;html=1;fontStyle=0;" vertex="1" parent="1">
          <mxGeometry x="340" y="810" width="120" height="60" as="geometry" />
        </mxCell>
        <mxCell id="7YEvDIjeLWanpLzrH5J_-63" value="" style="endArrow=classic;html=1;rounded=0;exitX=0.5;exitY=0;exitDx=0;exitDy=0;entryX=0;entryY=0.5;entryDx=0;entryDy=0;" edge="1" parent="1" source="7YEvDIjeLWanpLzrH5J_-56" target="7YEvDIjeLWanpLzrH5J_-50">
          <mxGeometry width="50" height="50" relative="1" as="geometry">
            <mxPoint x="510" y="730" as="sourcePoint" />
            <mxPoint x="560" y="680" as="targetPoint" />
            <Array as="points">
              <mxPoint x="430" y="620" />
            </Array>
          </mxGeometry>
        </mxCell>
        <mxCell id="7YEvDIjeLWanpLzrH5J_-68" value="" style="edgeStyle=orthogonalEdgeStyle;rounded=0;orthogonalLoop=1;jettySize=auto;html=1;" edge="1" parent="1" source="7YEvDIjeLWanpLzrH5J_-64" target="7YEvDIjeLWanpLzrH5J_-67">
          <mxGeometry relative="1" as="geometry" />
        </mxCell>
        <mxCell id="7YEvDIjeLWanpLzrH5J_-64" value="result = result - 0" style="whiteSpace=wrap;html=1;fontStyle=0;" vertex="1" parent="1">
          <mxGeometry x="697.5" y="590" width="120" height="60" as="geometry" />
        </mxCell>
        <mxCell id="7YEvDIjeLWanpLzrH5J_-70" value="" style="edgeStyle=orthogonalEdgeStyle;rounded=0;orthogonalLoop=1;jettySize=auto;html=1;" edge="1" parent="1" source="7YEvDIjeLWanpLzrH5J_-67" target="7YEvDIjeLWanpLzrH5J_-69">
          <mxGeometry relative="1" as="geometry" />
        </mxCell>
        <mxCell id="7YEvDIjeLWanpLzrH5J_-67" value="OUTPUT&lt;br&gt;result" style="shape=parallelogram;perimeter=parallelogramPerimeter;whiteSpace=wrap;html=1;fixedSize=1;fontStyle=0;" vertex="1" parent="1">
          <mxGeometry x="697.5" y="730" width="120" height="60" as="geometry" />
        </mxCell>
        <mxCell id="7YEvDIjeLWanpLzrH5J_-69" value="End" style="ellipse;whiteSpace=wrap;html=1;" vertex="1" parent="1">
          <mxGeometry x="697.5" y="860" width="120" height="80" as="geometry" />
        </mxCell>
      </root>
    </mxGraphModel>
  </diagram>
</mxfile>
